# xmcd
#
# Track frame offsets: 
#        183
#        12533
#        24345
#        34655
#        42205
#        52183
#        62340
#        69990
#        79030
#        89628
#        98758
#        106555
#        116178
#        125010
#        132810
#        143818
#        152620
#        163843
#
# Disc length: 2301 seconds
#
# Revision: 2
# Processed by: cddbd v1.5.2PL0 Copyright (c) Steve Scherf et al.
# Submitted via: ExactAudioCopyFreeDBPlugin 1.0
#
DISCID=eb08fb12
DTITLE=Jim Reeves - According to My Heart CD 2
DYEAR=1999
DGENRE=Country
TTITLE0=Four Walls
TTITLE1=Mexican Joe
TTITLE2=Anna Marie
TTITLE3=Blue Boy
TTITLE4=Softly and Tenderly
TTITLE5=He'll Have To Go
TTITLE6=Bimbo
TTITLE7=I'd Like To Be
TTITLE8=Peace In The Valley
TTITLE9=Billy Bayou
TTITLE10=In A Mansion Stands My Love
TTITLE11=I'm Getting Better
TTITLE12=Old Tyme Religion
TTITLE13=I Know One
TTITLE14=I Missed Me
TTITLE15=Yonder Comes A Sucker
TTITLE16=Am I Losing You
TTITLE17=According To My Heart
EXTD=
EXTT0=
EXTT1=
EXTT2=
EXTT3=
EXTT4=
EXTT5=
EXTT6=
EXTT7=
EXTT8=
EXTT9=
EXTT10=
EXTT11=
EXTT12=
EXTT13=
EXTT14=
EXTT15=
EXTT16=
EXTT17=
PLAYORDER=
